<?xml version="1.0" standalone="no"?><!DOCTYPE svg PUBLIC "-//W3C//DTD SVG 1.1//EN" "http://www.w3.org/Graphics/SVG/1.1/DTD/svg11.dtd"><svg t="1624632717146" class="icon" viewBox="0 0 1024 1024" version="1.1" xmlns="http://www.w3.org/2000/svg" p-id="8450" xmlns:xlink="http://www.w3.org/1999/xlink" width="200" height="200"><defs><style type="text/css"></style></defs><path d="M488.448 306.176L140.288 671.744c-6.144 6.827008-9.216 14.336-9.216 22.528s3.072 15.700992 9.216 22.528v1.024c6.144 6.144 13.483008 9.216 22.016 9.216s15.872-3.072 22.016-9.216l327.68-344.064 327.68 344.064c6.144 6.144 13.483008 9.216 22.016 9.216s15.872-3.072 22.016-9.216v-1.024c6.144-6.827008 9.216-14.336 9.216-22.528s-3.072-15.700992-9.216-22.528L535.552 306.176c-6.144-6.144-13.995008-9.216-23.552-9.216s-17.408 3.072-23.552 9.216z" p-id="8451"></path></svg>