<?xml version="1.0" standalone="no"?><!DOCTYPE svg PUBLIC "-//W3C//DTD SVG 1.1//EN" "http://www.w3.org/Graphics/SVG/1.1/DTD/svg11.dtd"><svg t="1634645382277" class="icon" viewBox="0 0 1024 1024" version="1.1" xmlns="http://www.w3.org/2000/svg" p-id="6182" xmlns:xlink="http://www.w3.org/1999/xlink" width="200" height="200"><defs><style type="text/css"></style></defs><path d="M891.1 492.4c-23.9-16.1 2.6-49.5-17.3-77.4-16.7-23.5-48.8-28-58.8-28.8-0.4 0-0.7-0.2-1.1-0.2-0.1 0-0.3 0.1-0.4 0.1-1.1-0.1-1.8-0.1-1.8-0.1l0.1 0.5c-6.2 1.2-11 7-11 14.4V608c-14.5-1.6-33.7 2.4-52.1 12.2-30.8 16.4-47.9 42.3-38.1 57.9 9.8 15.6 42.7 15 73.6-1.4 19.1-10.1 32.8-23.9 38.2-36.6 2.8-2.7 4.6-6.6 4.6-11.1V423.4c6.6 4.7 14.1 14.4 11 34.6-5.3 34.4 19.1 62.5 43.8 67.8 50.4 10.8 78.2-12.9 78.2-12.9s-45.1-4.4-68.9-20.5z m-229.8-45.9c0 164.9-133.7 298.7-298.6 298.7-165 0-298.7-133.7-298.7-298.7s133.7-298.7 298.7-298.7c164.9 0.1 298.6 133.8 298.6 298.7z m-298.6-59.7c-33 0-59.8 26.8-59.8 59.8s26.8 59.7 59.8 59.7 59.7-26.8 59.7-59.7c0-33.1-26.7-59.8-59.7-59.8zM198.9 595.4l-30.5 21.4c41.5 47.6 100.9 79.1 167.8 83.9v-37c-54.4-4.6-102.8-30-137.3-68.3z m342-302.6l30.3-21.2c-41.7-54.5-105.3-91-177.8-96.3v37c60 5.2 112.6 35.6 147.5 80.5z m-294 269l-22 15.5c28.6 30.2 67.6 50.6 111.4 55v-27.6c-34.8-4.2-66-19.4-89.4-42.9z m245.9-235.3l22.4-15.7c-29.1-36.9-72.4-62-121.7-67v27.7c40.1 4.8 75.1 25.1 99.3 55z m-38.9 27.2l20.3-14.2c-20-24.1-48.3-40.8-80.8-45.4V319c24.2 4.2 45.2 16.9 60.5 34.7zM287 533.7l-21 14.7c18.9 17.8 43.1 29.7 70.1 33.5v-24.8c-18.6-3.2-35.3-11.6-49.1-23.4z m136.9-161.4l13.1-8.8c-10.9-11.6-25.3-20-41.8-23.5v16c11 3 20.9 8.6 28.7 16.3z m-104.8 139l-14.5 10.1c9.3 6.9 19.9 12.1 31.6 14.7v-17.3c-6.1-1.8-11.9-4.3-17.1-7.5z m291.4 258.2c-16.1-10.9 1.8-33.4-11.7-52.3-11.3-15.9-33-18.9-39.7-19.5-0.2 0-0.5-0.2-0.7-0.2-0.1 0-0.2 0.1-0.3 0.1-0.8 0-1.2-0.1-1.2-0.1v0.3c-4.2 0.8-7.4 4.8-7.4 9.7v140c-9.8-1.1-22.7 1.6-35.2 8.3-20.8 11-32.4 28.6-25.7 39.1 6.6 10.6 28.9 10.1 49.7-1 12.9-6.8 22.2-16.1 25.8-24.7 1.9-1.8 3.1-4.5 3.1-7.5V722.8c4.5 3.2 9.5 9.7 7.4 23.4-3.6 23.2 12.9 42.2 29.6 45.8 34 7.3 52.9-8.7 52.9-8.7s-30.5-2.9-46.6-13.8z m207.6-565.1c-18.6-12.6 2.1-38.5-13.4-60.3-13-18.3-38-21.8-45.8-22.4-0.3 0-0.5-0.2-0.8-0.2-0.1 0-0.2 0.1-0.3 0.1-0.9 0-1.4-0.1-1.4-0.1l0.1 0.4c-4.8 0.9-8.5 5.4-8.5 11.2v161.4c-11.3-1.2-26.2 1.9-40.6 9.5-24 12.8-37.3 32.9-29.7 45.1 7.6 12.1 33.3 11.7 57.3-1.1 14.8-7.9 25.5-18.6 29.8-28.5 2.2-2.1 3.6-5.1 3.6-8.6V150.7c5.2 3.6 11 11.2 8.5 26.9-4.1 26.8 14.9 48.7 34.1 52.8 39.2 8.4 60.9-10.1 60.9-10.1s-35.2-3.3-53.8-15.9z" p-id="6183"></path></svg>