<?xml version="1.0" standalone="no"?><!DOCTYPE svg PUBLIC "-//W3C//DTD SVG 1.1//EN" "http://www.w3.org/Graphics/SVG/1.1/DTD/svg11.dtd"><svg t="1624717191409" class="icon" viewBox="0 0 1024 1024" version="1.1" xmlns="http://www.w3.org/2000/svg" p-id="4089" xmlns:xlink="http://www.w3.org/1999/xlink" width="200" height="200"><defs><style type="text/css"></style></defs><path d="M511.516999 881.470843c-3.741207 0-7.476275-0.751107-10.988261-2.254344-16.254196-6.969739-398.140813-174.318164-398.140813-489.185388 0-136.473231 111.030769-247.501954 247.505024-247.501954 59.682287 0 117.355825 21.775956 162.110121 60.518329 44.754297-38.742373 102.429881-60.518329 162.110121-60.518329 136.473231 0 247.501954 111.027699 247.501954 247.501954 0 314.883597-382.837268 482.225883-399.135466 489.196645a27.882024 27.882024 0 0 1-10.96268 2.243087zM349.890902 198.288089c-105.730043 0-191.745069 86.015026-191.745069 191.743022 0 250.79393 292.50389 403.765927 353.370143 432.859545 60.898998-29.115108 354.337167-182.491311 354.337168-432.859545 0-105.726973-86.012979-191.743022-191.743023-191.743022-53.67855 0-105.267509 22.747073-141.537573 62.405305a27.872814 27.872814 0 0 1-41.145096 0c-36.269042-39.658232-87.853907-62.405305-141.53655-62.405305z" p-id="4090"></path></svg>