<?xml version="1.0" standalone="no"?><!DOCTYPE svg PUBLIC "-//W3C//DTD SVG 1.1//EN" "http://www.w3.org/Graphics/SVG/1.1/DTD/svg11.dtd"><svg t="1630113176353" class="icon" viewBox="0 0 1024 1024" version="1.1" xmlns="http://www.w3.org/2000/svg" p-id="4411" xmlns:xlink="http://www.w3.org/1999/xlink" width="200" height="200"><defs><style type="text/css"></style></defs><path d="M384 800c-17.6 0-32-14.4-32-32V248c0-48 36.8-89.6 84.8-96l384-48c27.2-1.6 54.4 6.4 75.2 24 20.8 17.6 32 44.8 32 72V704c0 17.6-14.4 32-32 32s-32-14.4-32-32V200c0-9.6-3.2-17.6-11.2-24s-16-9.6-25.6-8l-384 48c-16 1.6-28.8 16-28.8 32V768c1.6 17.6-12.8 32-30.4 32z" p-id="4412"></path><path d="M752 864c-97.6 0-176-72-176-160s78.4-160 176-160 176 72 176 160-78.4 160-176 160z m0-256c-62.4 0-112 43.2-112 96s49.6 96 112 96 112-43.2 112-96-49.6-96-112-96zM240 928C142.4 928 64 856 64 768s78.4-160 176-160 176 72 176 160-78.4 160-176 160z m0-256c-62.4 0-112 43.2-112 96s49.6 96 112 96 112-43.2 112-96-49.6-96-112-96zM416 416c-16 0-28.8-11.2-32-27.2-1.6-17.6 9.6-33.6 27.2-35.2l320-43.2c17.6-1.6 33.6 9.6 35.2 27.2 1.6 17.6-9.6 33.6-27.2 35.2l-320 43.2H416z" p-id="4413"></path></svg>