<?xml version="1.0" standalone="no"?><!DOCTYPE svg PUBLIC "-//W3C//DTD SVG 1.1//EN" "http://www.w3.org/Graphics/SVG/1.1/DTD/svg11.dtd"><svg t="1641878622480" class="icon" viewBox="0 0 1098 1024" version="1.1" xmlns="http://www.w3.org/2000/svg" p-id="2190" xmlns:xlink="http://www.w3.org/1999/xlink" width="214.453125" height="200"><defs><style type="text/css"></style></defs><path d="M138.4186288177824 907.7955112118922l0-810.1328657092466c0-7.500561350466111-8.881784197001252e-16-11.249810027714787 3.7492486772486746-18.752435374149655 2.220446049250313e-16-3.7492486772486773 0-7.500561350466111 3.7492486772486764-7.500561350466109 11.249810027714785-18.75243537414966 26.252996724615773-30.00534139581758 45.00852809271856-30.00534139581758l3.7492486772486773 2.220446049250313e-16c3.7492486772486773 2.220446049250313e-16 7.500561350466111 0 15.004218694885356 3.7492486772486773 3.7492486772486773 2.220446049250313e-16 7.500561350466109 3.7492486772486764 11.249810027714787 3.7492486772486773l592.5980105820104 378.8124041320231 0-303.80059863945576c-3.552713678800501e-15-45.008528092718564 33.753558075081884-86.26471151423533 75.01180549256739-86.2647115142353s75.01180549256739 37.50796674225245 75.01180549256738 86.2647115142353l-5.684341886080802e-14 761.3761209372637c3.552713678800501e-15 45.008528092718564-33.753558075081884 86.26471151423533-75.01180549256739 86.2647115142353s-75.01180549256739-37.50796674225245-75.01180549256738-86.2647115142353l0-303.80059863945576-592.5980105820105 382.56371680524063c-3.7492486772486773-2.220446049250313e-16-7.50056135046611 3.749248677248677-11.249810027714787 3.7492486772486764s-7.50056135046611 3.749248677248677-15.004218694885358 3.7492486772486773l-3.7492486772486773-2.220446049250313e-16c-18.752435374149663 0-37.50796674225244-11.249810027714782-45.008528092718564-30.005341395817588 2.220446049250313e-16-3.7492486772486773 2.220446049250313e-16-3.7492486772486773-3.749248677248677-7.50056135046611l2.220446049250313e-16-3.7492486772486773c-3.749248677248677-7.50056135046611-3.7492486772486764-11.249810027714787-3.749248677248678-18.75243537414966 3.7492486772486773-3.749248677248677 2.220446049250313e-16-3.7492486772486773 2.220446049250313e-16-3.7492486772486773zM250.9384010526021 206.42594507432602l0 596.349323255228 461.32683497102533-296.30003728898953-461.3268349710253-300.0503179642227z" p-id="2191"></path></svg>