<?xml version="1.0" standalone="no"?><!DOCTYPE svg PUBLIC "-//W3C//DTD SVG 1.1//EN" "http://www.w3.org/Graphics/SVG/1.1/DTD/svg11.dtd"><svg t="1641878617716" class="icon" viewBox="0 0 1098 1024" version="1.1" xmlns="http://www.w3.org/2000/svg" p-id="2062" xmlns:xlink="http://www.w3.org/1999/xlink" width="214.453125" height="200"><defs><style type="text/css"></style></defs><path d="M885.5813711822178 116.20448878810805l-3.410605131648481e-13 810.1328657092466c-2.220446049250313e-15 7.500561350466111-3.552713678800501e-15 11.249810027714787-3.749248677248681 18.752435374149655-1.3322676295501878e-15 3.7492486772486773-2.220446049250313e-15 7.500561350466111-3.7492486772486795 7.500561350466109-11.24981002771479 18.752435374149655-26.25299672461578 30.005341395817574-45.00852809271857 30.005341395817567l-3.7492486772486773-1.3322676295501878e-15c-3.7492486772486773-1.3322676295501878e-15-7.500561350466111-2.220446049250313e-15-15.004218694885356-3.7492486772486826-3.7492486772486773-1.3322676295501878e-15-7.500561350466109-3.7492486772486795-11.249810027714787-3.7492486772486817l-592.5980105820104-378.8124041320233-8.526512829121202e-14 303.80059863945576c-1.4210854715202004e-14 45.008528092718564-33.753558075081905 86.26471151423533-75.01180549256739 86.2647115142353s-75.01180549256738-37.50796674225247-75.01180549256735-86.26471151423533l2.8421709430404007e-13-761.3761209372637c1.4210854715202004e-14-45.008528092718564 33.753558075081905-86.26471151423533 75.01180549256739-86.2647115142353s75.01180549256738 37.50796674225247 75.01180549256735 86.26471151423533l-8.526512829121202e-14 303.80059863945576 592.5980105820106-382.56371680524046c3.7492486772486773 1.3322676295501878e-15 7.5005613504661115-3.7492486772486746 11.249810027714787-3.749248677248673s7.5005613504661115-3.7492486772486746 15.00421869488536-3.7492486772486737l3.7492486772486773 1.3322676295501878e-15c18.752435374149663 5.329070518200751e-15 37.50796674225244 11.249810027714796 45.00852809271855 30.005341395817602-1.3322676295501878e-15 3.7492486772486773-1.3322676295501878e-15 3.7492486772486773 3.7492486772486746 7.5005613504661115l-1.3322676295501878e-15 3.7492486772486773c3.7492486772486746 7.5005613504661115 3.749248677248673 11.249810027714787 3.749248677248673 18.752435374149663-3.749248677248678 3.749248677248676-1.3322676295501878e-15 3.7492486772486773-1.3322676295501878e-15 3.7492486772486773zM773.0615989473979 817.5740549256741l1.7053025658242404e-13-596.349323255228-461.32683497102545 296.3000372889894 461.3268349710252 300.0503179642228z" p-id="2063"></path></svg>