<?xml version="1.0" standalone="no"?><!DOCTYPE svg PUBLIC "-//W3C//DTD SVG 1.1//EN" "http://www.w3.org/Graphics/SVG/1.1/DTD/svg11.dtd"><svg t="1624772461173" class="icon" viewBox="0 0 1024 1024" version="1.1" xmlns="http://www.w3.org/2000/svg" p-id="3152" xmlns:xlink="http://www.w3.org/1999/xlink" width="200" height="200"><defs><style type="text/css"></style></defs><path d="M725.758 424.294c55.658-42.775 91.542-110.005 91.542-185.627 0-129.228-104.76-233.988-233.988-233.988s-233.988 104.76-233.988 233.988c0 78.485 38.646 147.939 97.943 190.387C220.615 493.403 49.457 700.878 49.457 946.888c0 24.964 1.771 49.529 5.175 73.59l66.477 0c-3.663-23.105-5.574-46.762-5.574-70.844 0-259.016 220.271-468.989 479.949-468.989 152.609 0 291.582 72.538 380.261 184.909L975.745 562.525C906.903 496.367 820.832 447.815 725.758 424.294zM583.312 73.301c91.329 0 165.366 74.037 165.366 165.366s-74.037 165.366-165.366 165.366-165.366-74.037-165.366-165.366S491.983 73.301 583.312 73.301zM743.652 772.969 588.925 772.969 588.925 839.132 743.652 839.132 821.016 839.132 975.744 839.132 975.744 772.969 821.016 772.969ZM743.652 954.837 588.925 954.837 588.925 1021 743.652 1021 821.016 1021 975.744 1021 975.744 954.837 821.016 954.837Z" p-id="3153"></path></svg>